<svg xmlns="http://www.w3.org/2000/svg" viewBox="0 0 1200 800" width="1200" height="800" role="img" aria-hidden="true"><rect width="1200" height="800" fill="#F5F7FA"/><g stroke="#E4E9F0" stroke-width="1"><path d="M50 0V800"/><path d="M100 0V800"/><path d="M150 0V800"/><path d="M200 0V800"/><path d="M250 0V800"/><path d="M300 0V800"/><path d="M350 0V800"/><path d="M400 0V800"/><path d="M450 0V800"/><path d="M500 0V800"/><path d="M550 0V800"/><path d="M600 0V800"/><path d="M650 0V800"/><path d="M700 0V800"/><path d="M750 0V800"/><path d="M800 0V800"/><path d="M850 0V800"/><path d="M900 0V800"/><path d="M950 0V800"/><path d="M1000 0V800"/><path d="M1050 0V800"/><path d="M1100 0V800"/><path d="M1150 0V800"/><path d="M0 50H1200"/><path d="M0 100H1200"/><path d="M0 150H1200"/><path d="M0 200H1200"/><path d="M0 250H1200"/><path d="M0 300H1200"/><path d="M0 350H1200"/><path d="M0 400H1200"/><path d="M0 450H1200"/><path d="M0 500H1200"/><path d="M0 550H1200"/><path d="M0 600H1200"/><path d="M0 650H1200"/><path d="M0 700H1200"/><path d="M0 750H1200"/></g><circle cx="489.8" cy="440.8" r="9.5" fill="#0058AB" opacity="0.6"/><circle cx="494.3" cy="301.8" r="2.8" fill="#00D5D0" opacity="0.9"/><circle cx="408.3" cy="393.7" r="5.5" fill="#00828E" opacity="0.8"/><circle cx="72.7" cy="764.3" r="5.4" fill="#00D5D0" opacity="0.7"/><circle cx="1180.4" cy="68.9" r="3.2" fill="#00828E" opacity="0.5"/><circle cx="1075.7" cy="65.2" r="7.5" fill="#00828E" opacity="0.6"/><circle cx="1114.1" cy="112.8" r="10" fill="#121A38" opacity="0.7"/><circle cx="1118.7" cy="182.5" r="8.9" fill="#00D5D0" opacity="0.9"/><circle cx="354.9" cy="396.9" r="2.1" fill="#1DB8F2" opacity="1"/><circle cx="163.1" cy="548" r="10.4" fill="#00828E" opacity="1"/><circle cx="711.7" cy="429.9" r="10.4" fill="#121A38" opacity="0.8"/><circle cx="1162.6" cy="282.7" r="7.1" fill="#7FA8D9" opacity="0.8"/><circle cx="499.1" cy="434.8" r="4.2" fill="#121A38" opacity="0.6"/><circle cx="816.2" cy="68.5" r="6.7" fill="#7FA8D9" opacity="0.8"/><circle cx="1058" cy="241.3" r="2.9" fill="#121A38" opacity="0.8"/><circle cx="567.4" cy="556.4" r="5.8" fill="#9FDCEA" opacity="0.8"/><circle cx="360.7" cy="635.7" r="3.9" fill="#00D5D0" opacity="0.9"/><circle cx="576" cy="239.8" r="9.2" fill="#121A38" opacity="0.5"/><circle cx="16.9" cy="645.6" r="8.3" fill="#8892AB" opacity="0.5"/><circle cx="681" cy="363.9" r="9.3" fill="#00D5D0" opacity="0.9"/><circle cx="95.6" cy="643.8" r="10" fill="#00828E" opacity="0.7"/><circle cx="226.6" cy="536.3" r="9.7" fill="#121A38" opacity="0.6"/><circle cx="733.8" cy="292.6" r="5.5" fill="#0058AB" opacity="0.9"/><circle cx="304.6" cy="412.7" r="8.1" fill="#00D5D0" opacity="1"/><circle cx="210.4" cy="667.4" r="5.4" fill="#1DB8F2" opacity="1"/><circle cx="973.3" cy="285.6" r="10.4" fill="#121A38" opacity="1"/><circle cx="688.3" cy="277.8" r="9" fill="#00828E" opacity="0.8"/><circle cx="139" cy="713.9" r="8.6" fill="#8892AB" opacity="0.8"/><circle cx="428.5" cy="681.6" r="3.8" fill="#7FA8D9" opacity="0.9"/><circle cx="356.7" cy="569.9" r="8.8" fill="#9FDCEA" opacity="0.6"/><circle cx="137" cy="514.9" r="8.4" fill="#00D5D0" opacity="0.8"/><circle cx="651.9" cy="496.8" r="2.9" fill="#121A38" opacity="0.9"/><circle cx="837.9" cy="102.6" r="4.8" fill="#1DB8F2" opacity="0.9"/><circle cx="1045.5" cy="271.4" r="6" fill="#0058AB" opacity="0.8"/><circle cx="22.6" cy="500.1" r="10.2" fill="#7FA8D9" opacity="0.8"/><circle cx="796.8" cy="358.3" r="2.1" fill="#00828E" opacity="0.5"/><circle cx="428.9" cy="634.3" r="2.3" fill="#00D5D0" opacity="0.7"/><circle cx="1005.8" cy="306.9" r="4.3" fill="#00828E" opacity="0.6"/><circle cx="917.7" cy="64" r="10.9" fill="#1DB8F2" opacity="0.7"/><circle cx="40.3" cy="747.8" r="8.3" fill="#0058AB" opacity="0.8"/><circle cx="108.7" cy="706.5" r="8.7" fill="#121A38" opacity="0.5"/><circle cx="224" cy="775.3" r="8" fill="#00828E" opacity="1"/><circle cx="620.5" cy="229.9" r="10.4" fill="#0058AB" opacity="0.8"/><circle cx="433.7" cy="699.9" r="2.8" fill="#00828E" opacity="0.6"/><circle cx="856.6" cy="223.8" r="2.3" fill="#8892AB" opacity="1"/><circle cx="301.1" cy="607.3" r="8.8" fill="#121A38" opacity="0.6"/><circle cx="851.1" cy="117.7" r="9" fill="#0058AB" opacity="0.8"/><circle cx="55.7" cy="520.3" r="8.1" fill="#00D5D0" opacity="0.9"/><circle cx="989.6" cy="219.3" r="8.3" fill="#00D5D0" opacity="0.8"/><circle cx="946.5" cy="198.9" r="9.1" fill="#00828E" opacity="0.5"/><circle cx="471.4" cy="663.2" r="2.1" fill="#0058AB" opacity="0.9"/><circle cx="492.1" cy="351.8" r="9.4" fill="#8892AB" opacity="0.9"/><circle cx="1082" cy="220.8" r="6.8" fill="#0058AB" opacity="0.6"/><circle cx="772" cy="331.9" r="3.5" fill="#8892AB" opacity="1"/><circle cx="16.8" cy="694.6" r="10.9" fill="#00D5D0" opacity="0.5"/><circle cx="359.3" cy="668.8" r="2.7" fill="#7FA8D9" opacity="1"/><circle cx="877.6" cy="190.1" r="5.6" fill="#1DB8F2" opacity="0.9"/><circle cx="453" cy="518" r="3.6" fill="#00828E" opacity="0.9"/><circle cx="293.1" cy="675.1" r="3.8" fill="#00D5D0" opacity="0.9"/><circle cx="1198.3" cy="62.7" r="3.2" fill="#9FDCEA" opacity="0.5"/><circle cx="323.7" cy="553.3" r="7.2" fill="#00828E" opacity="0.8"/><circle cx="1028" cy="173.5" r="6" fill="#9FDCEA" opacity="0.7"/><circle cx="709.6" cy="418.8" r="5.9" fill="#8892AB" opacity="0.6"/><circle cx="147.4" cy="751.6" r="2.1" fill="#8892AB" opacity="1"/><circle cx="890.3" cy="221" r="7.3" fill="#8892AB" opacity="0.5"/><circle cx="912.2" cy="219.8" r="6.8" fill="#1DB8F2" opacity="0.7"/><circle cx="1140.7" cy="64.3" r="3.5" fill="#9FDCEA" opacity="0.9"/><circle cx="798.2" cy="115.8" r="3.5" fill="#7FA8D9" opacity="0.9"/><circle cx="890.6" cy="178.3" r="7.4" fill="#9FDCEA" opacity="0.5"/><circle cx="622.8" cy="419.5" r="3.9" fill="#00828E" opacity="0.8"/><circle cx="1042" cy="95.6" r="3.3" fill="#0058AB" opacity="0.5"/><circle cx="346.1" cy="770.6" r="3" fill="#9FDCEA" opacity="1"/><circle cx="1057.8" cy="185.2" r="7.6" fill="#9FDCEA" opacity="0.8"/><circle cx="1185.3" cy="179.4" r="3.5" fill="#8892AB" opacity="0.6"/><circle cx="440.3" cy="513.7" r="6.7" fill="#0058AB" opacity="0.5"/><circle cx="1179.2" cy="75.8" r="6.8" fill="#121A38" opacity="0.8"/><circle cx="387.1" cy="694.1" r="6.9" fill="#9FDCEA" opacity="0.6"/><circle cx="517.8" cy="580.5" r="5.8" fill="#8892AB" opacity="0.5"/><circle cx="435.3" cy="416.2" r="9.7" fill="#1DB8F2" opacity="0.5"/><circle cx="1062.3" cy="30.2" r="6.8" fill="#0058AB" opacity="0.8"/><circle cx="962.8" cy="232" r="10.7" fill="#7FA8D9" opacity="0.8"/><circle cx="583.4" cy="241.1" r="9.6" fill="#8892AB" opacity="0.9"/><circle cx="15.7" cy="610.5" r="2.2" fill="#0058AB" opacity="0.6"/><circle cx="149.1" cy="520.8" r="3.7" fill="#0058AB" opacity="0.5"/><circle cx="679.8" cy="448.5" r="9.4" fill="#00D5D0" opacity="1"/><circle cx="653.5" cy="303.1" r="5.8" fill="#0058AB" opacity="0.7"/><circle cx="135" cy="763.9" r="9.1" fill="#7FA8D9" opacity="0.7"/><circle cx="343.7" cy="759.3" r="10.7" fill="#00828E" opacity="0.8"/><circle cx="858.7" cy="221" r="4.7" fill="#00D5D0" opacity="0.8"/><circle cx="240.7" cy="546.9" r="3.4" fill="#7FA8D9" opacity="0.7"/><circle cx="459" cy="680.9" r="5.1" fill="#8892AB" opacity="0.5"/><circle cx="720.5" cy="376.8" r="4" fill="#00D5D0" opacity="0.5"/><circle cx="931.7" cy="197.9" r="5.1" fill="#8892AB" opacity="0.9"/><circle cx="989.1" cy="3.8" r="3.8" fill="#0058AB" opacity="0.9"/><circle cx="1103.2" cy="258.6" r="10.4" fill="#7FA8D9" opacity="0.7"/><circle cx="105" cy="704.4" r="10.9" fill="#121A38" opacity="1"/><circle cx="1029.8" cy="320.7" r="2.5" fill="#00D5D0" opacity="0.5"/><circle cx="974.4" cy="148.2" r="8.8" fill="#00828E" opacity="0.7"/><circle cx="44.8" cy="713.2" r="10.6" fill="#8892AB" opacity="0.5"/><circle cx="848.8" cy="15.6" r="6.7" fill="#0058AB" opacity="0.5"/><circle cx="898.3" cy="52.5" r="3" fill="#00828E" opacity="0.6"/><circle cx="527.4" cy="302.3" r="7" fill="#9FDCEA" opacity="0.7"/><circle cx="892" cy="258" r="7.3" fill="#121A38" opacity="0.5"/><circle cx="1077.8" cy="191.9" r="6.8" fill="#7FA8D9" opacity="0.9"/><circle cx="852.7" cy="305.3" r="3.2" fill="#00D5D0" opacity="0.5"/><circle cx="542.1" cy="514.3" r="10.3" fill="#00828E" opacity="0.7"/><circle cx="297.4" cy="748.8" r="4.5" fill="#00828E" opacity="0.9"/><circle cx="759.2" cy="173.7" r="3.8" fill="#8892AB" opacity="0.7"/><circle cx="641.6" cy="337.2" r="8.7" fill="#8892AB" opacity="1"/><circle cx="1132.1" cy="96.8" r="10.9" fill="#121A38" opacity="0.5"/><circle cx="520.1" cy="285.7" r="3.6" fill="#0058AB" opacity="0.7"/><circle cx="124.8" cy="559.7" r="7.1" fill="#00828E" opacity="0.5"/><circle cx="628.3" cy="509.8" r="7.9" fill="#0058AB" opacity="0.8"/><circle cx="369.6" cy="451.9" r="2.6" fill="#9FDCEA" opacity="0.7"/><circle cx="40.4" cy="783.7" r="10.7" fill="#00828E" opacity="0.7"/><circle cx="519.2" cy="492.9" r="4.1" fill="#9FDCEA" opacity="0.6"/><circle cx="657.9" cy="275.8" r="8.4" fill="#7FA8D9" opacity="0.6"/><circle cx="293.3" cy="549.8" r="2.3" fill="#0058AB" opacity="0.5"/><circle cx="1092.4" cy="47.8" r="9.8" fill="#9FDCEA" opacity="0.6"/><circle cx="569.1" cy="417.3" r="7.7" fill="#00D5D0" opacity="0.8"/><circle cx="804.9" cy="35" r="4.7" fill="#00828E" opacity="0.7"/><circle cx="549.1" cy="389.9" r="2.5" fill="#1DB8F2" opacity="0.9"/><circle cx="333.6" cy="569.7" r="7.3" fill="#9FDCEA" opacity="1"/><circle cx="543" cy="363" r="5.8" fill="#00D5D0" opacity="0.7"/><circle cx="241.6" cy="462.5" r="10.7" fill="#121A38" opacity="0.7"/><circle cx="346.9" cy="433.9" r="2.6" fill="#7FA8D9" opacity="0.5"/><circle cx="953.1" cy="115.4" r="3.8" fill="#8892AB" opacity="0.5"/><circle cx="915.8" cy="69" r="3.3" fill="#00828E" opacity="0.6"/><circle cx="747.9" cy="151.5" r="10.3" fill="#7FA8D9" opacity="0.7"/><circle cx="967.1" cy="135.1" r="6.2" fill="#8892AB" opacity="0.7"/><circle cx="1070.5" cy="15.2" r="2.3" fill="#00828E" opacity="0.9"/><circle cx="670.2" cy="235" r="4.1" fill="#1DB8F2" opacity="0.7"/><circle cx="806.3" cy="103.3" r="3.9" fill="#00D5D0" opacity="0.8"/><circle cx="687" cy="447.9" r="9.3" fill="#7FA8D9" opacity="0.8"/><circle cx="444.3" cy="370.9" r="3.9" fill="#00D5D0" opacity="0.9"/><circle cx="475.7" cy="422.2" r="2.6" fill="#8892AB" opacity="0.5"/><circle cx="573.4" cy="345.3" r="5.1" fill="#121A38" opacity="0.7"/><circle cx="263.4" cy="553.5" r="6.7" fill="#121A38" opacity="0.7"/><circle cx="216.5" cy="731.8" r="4.7" fill="#00828E" opacity="0.9"/><circle cx="634.3" cy="397" r="6.6" fill="#121A38" opacity="0.7"/><circle cx="1133.3" cy="275.7" r="5.2" fill="#0058AB" opacity="0.9"/><circle cx="372.3" cy="535.1" r="10.3" fill="#9FDCEA" opacity="0.6"/><circle cx="1140.7" cy="130.5" r="8.7" fill="#00828E" opacity="0.7"/><circle cx="302.5" cy="696.4" r="3.4" fill="#00D5D0" opacity="0.8"/><circle cx="811.4" cy="323.2" r="2.1" fill="#121A38" opacity="0.5"/><circle cx="40.6" cy="581.7" r="10" fill="#00828E" opacity="0.6"/><circle cx="182.5" cy="448.2" r="5.1" fill="#0058AB" opacity="0.9"/><circle cx="537" cy="337.8" r="4.2" fill="#121A38" opacity="0.5"/><circle cx="1000.6" cy="118.8" r="10.5" fill="#8892AB" opacity="0.8"/><circle cx="713" cy="292.2" r="5.9" fill="#8892AB" opacity="0.8"/><path d="M0 650L24 648.9L48 647.5L72 645.8L96 643.9L120 641.5L144 638.8L168 635.5L192 631.6L216 627.1L240 621.7L264 615.5L288 608.2L312 599.8L336 590L360 578.8L384 566.1L408 551.8L432 535.8L456 518.1L480 498.8L504 477.9L528 455.7L552 432.4L576 408.4L600 384L624 359.6L648 335.6L672 312.3L696 290.1L720 269.2L744 249.9L768 232.2L792 216.2L816 201.9L840 189.2L864 178L888 168.2L912 159.8L936 152.5L960 146.3L984 140.9L1008 136.4L1032 132.5L1056 129.2L1080 126.5L1104 124.1L1128 122.2L1152 120.5L1176 119.1L1200 118" fill="none" stroke="#00828E" stroke-width="6" stroke-linecap="round"/></svg>